<?xml version="1.0" standalone="no"?>
<!DOCTYPE svg PUBLIC "-//W3C//DTD SVG 20010904//EN"
 "http://www.w3.org/TR/2001/REC-SVG-20010904/DTD/svg10.dtd">
<svg version="1.0" xmlns="http://www.w3.org/2000/svg"
 width="1008.000000pt" height="232.000000pt" viewBox="0 0 1008.000000 232.000000"
 preserveAspectRatio="xMidYMid meet">

<g transform="translate(0.000000,232.000000) scale(0.100000,-0.100000)"
fill="#000000" stroke="none">
<path d="M525 2153 c-127 -27 -255 -93 -324 -167 -14 -14 -22 -26 -18 -26 3 0
45 13 94 29 156 53 258 61 423 37 131 -20 231 -53 470 -156 377 -161 496 -193
725 -193 110 0 157 5 220 22 104 27 224 87 302 151 56 45 118 118 109 127 -2
2 -26 -12 -54 -31 -148 -99 -387 -146 -595 -116 -176 26 -266 54 -537 170
-113 48 -242 99 -286 113 -177 56 -383 72 -529 40z"/>
<path d="M3828 2156 c-66 -24 -81 -41 -159 -172 -567 -960 -709 -1205 -709
-1218 0 -4 70 -5 156 -4 l156 3 55 95 c117 201 292 505 424 735 75 132 141
239 145 238 4 0 69 -108 145 -240 l137 -238 -176 -5 -177 -5 -57 -100 c-31
-55 -57 -103 -57 -107 -1 -4 135 -9 302 -10 l302 -3 109 -182 109 -183 159 0
160 0 -22 38 c-12 20 -75 127 -140 237 -65 110 -237 398 -383 640 -206 341
-273 445 -300 463 -44 29 -128 38 -179 18z"/>
<path d="M5482 2151 c-125 -36 -226 -133 -263 -252 -23 -75 -25 -222 -4 -293
33 -107 102 -187 204 -235 l56 -26 515 -5 c514 -5 515 -5 551 -28 90 -55 93
-212 6 -276 -28 -21 -41 -21 -665 -26 l-637 -5 -7 -54 c-3 -30 -8 -84 -10
-120 l-3 -66 675 0 675 0 56 23 c163 66 240 190 242 392 1 136 -27 215 -102
291 -38 38 -75 63 -116 80 l-60 24 -515 5 c-475 5 -518 6 -543 23 -47 31 -67
74 -67 146 0 77 24 122 81 151 37 19 61 20 622 20 l585 0 6 43 c3 23 8 79 12
125 l7 82 -619 -1 c-565 0 -624 -2 -682 -18z"/>
<path d="M7377 2163 c-4 -3 -7 -318 -7 -700 l0 -693 58 0 c31 0 94 -3 140 -7
l82 -6 0 707 0 706 -133 0 c-74 0 -137 -3 -140 -7z"/>
<path d="M8200 2045 l0 -124 628 -3 627 -3 45 -25 c77 -44 111 -135 89 -241
-16 -76 -81 -142 -157 -158 -36 -7 -243 -11 -642 -11 l-590 0 0 -354 0 -353
118 -5 c65 -3 130 -4 145 -1 l27 5 0 234 0 234 333 0 332 0 182 -212 c100
-117 190 -223 200 -236 18 -22 21 -23 208 -20 l189 3 -204 238 c-113 131 -206
241 -208 246 -1 4 17 13 40 20 221 67 346 277 310 524 -27 184 -134 300 -319
347 -72 19 -113 20 -715 20 l-638 0 0 -125z"/>
<path d="M537 1685 c-87 -18 -218 -81 -291 -141 -32 -25 -55 -48 -53 -51 3 -2
54 13 113 34 109 38 110 38 269 38 144 0 170 -3 263 -28 57 -15 192 -64 300
-108 270 -110 340 -136 456 -167 92 -24 117 -27 286 -27 183 1 186 1 280 33
120 41 233 109 306 183 58 59 67 87 18 54 -140 -92 -320 -145 -492 -145 -183
0 -359 48 -687 190 -316 136 -553 177 -768 135z"/>
<path d="M625 1210 c-89 -13 -212 -54 -280 -95 -57 -34 -155 -121 -155 -136 0
-4 29 5 65 22 130 59 206 74 365 74 184 -1 272 -22 565 -139 361 -145 486
-173 725 -163 230 9 387 70 531 204 43 41 79 82 79 90 0 11 -6 10 -27 -5 -40
-28 -142 -78 -215 -105 -186 -70 -438 -66 -673 10 -44 14 -147 52 -228 85
-203 81 -296 113 -407 136 -113 24 -262 34 -345 22z"/>
<path d="M2095 516 c-37 -16 -92 -77 -101 -112 -4 -14 -4 -50 -2 -80 4 -45 10
-61 38 -89 51 -52 91 -68 169 -63 50 2 75 9 100 27 l33 24 -20 20 c-20 20 -21
20 -49 2 -37 -25 -118 -25 -155 -1 -34 22 -60 88 -52 130 3 18 17 45 31 60 46
50 104 59 168 26 36 -18 40 -19 57 -4 22 21 17 29 -32 54 -46 23 -139 26 -185
6z"/>
<path d="M2680 519 c-32 -13 -78 -56 -96 -91 -8 -15 -14 -50 -14 -78 0 -57 15
-93 57 -132 37 -36 73 -48 139 -48 87 0 148 38 179 113 28 68 11 152 -42 199
-47 43 -160 62 -223 37z m134 -53 c107 -45 101 -200 -9 -236 -38 -13 -87 -6
-121 17 -26 17 -54 71 -54 105 0 37 34 90 71 110 40 22 68 23 113 4z"/>
<path d="M3240 350 l0 -180 30 0 29 0 3 118 3 117 60 -97 c34 -55 67 -98 75
-98 9 0 41 42 75 98 l60 97 3 -117 3 -118 29 0 30 0 0 181 0 180 -27 -3 c-23
-2 -38 -21 -94 -112 -36 -61 -71 -112 -76 -113 -6 -2 -41 48 -79 112 -61 103
-71 115 -96 115 l-28 0 0 -180z"/>
<path d="M3944 517 c-2 -7 -3 -87 -2 -177 l3 -165 32 -3 32 -3 3 53 3 53 75 6
c41 3 85 10 97 17 96 52 80 189 -25 220 -55 17 -211 16 -218 -1z m212 -58 c26
-21 35 -56 22 -84 -13 -30 -65 -48 -123 -43 l-40 3 -3 59 c-5 87 -2 90 69 83
33 -3 67 -11 75 -18z"/>
<path d="M4610 463 c-18 -37 -57 -119 -86 -180 l-53 -113 34 0 c31 0 36 4 54
45 l20 46 96 -2 95 -1 20 -44 c16 -38 23 -44 49 -44 17 0 31 5 31 10 0 6 -36
85 -79 178 -79 166 -80 167 -114 170 -34 3 -36 1 -67 -65z m124 -130 c7 -22 5
-23 -58 -23 -36 0 -66 4 -66 9 0 4 14 39 31 77 l31 69 28 -55 c15 -30 31 -65
34 -77z"/>
<path d="M5140 350 l0 -180 30 0 30 0 0 120 c0 66 3 120 8 119 4 0 52 -54 106
-120 84 -101 104 -119 128 -119 l28 0 0 181 0 180 -32 -3 -33 -3 -5 -118 -5
-118 -77 93 c-119 142 -125 148 -153 148 l-25 0 0 -180z"/>
<path d="M5730 524 c0 -6 97 -159 122 -193 13 -17 18 -42 18 -92 l0 -69 35 0
35 0 0 65 c0 63 3 70 58 158 90 140 88 137 53 137 -26 0 -36 -10 -85 -85 -31
-47 -58 -85 -60 -85 -2 0 -28 38 -58 85 -49 78 -56 85 -85 85 -18 0 -33 -2
-33 -6z"/>
<path d="M6664 517 c-2 -7 -3 -87 -2 -177 l3 -165 138 -3 137 -3 0 25 c0 30
-30 38 -135 34 l-70 -3 -3 53 -3 52 90 0 c90 0 91 0 91 25 0 25 -1 25 -90 25
l-90 0 0 50 0 50 100 0 100 0 0 25 0 25 -130 0 c-97 0 -132 -3 -136 -13z"/>
<path d="M7220 350 l0 -180 35 0 35 0 0 180 0 180 -35 0 -35 0 0 -180z"/>
<path d="M7590 351 l0 -181 29 0 c29 0 30 2 33 52 l3 53 50 3 50 2 39 -55 c35
-48 44 -55 73 -55 38 0 38 -1 -15 73 -19 26 -33 49 -31 50 2 2 16 11 31 20 63
39 58 147 -10 189 -31 19 -54 23 -144 27 l-108 3 0 -181z m214 106 c19 -13 26
-26 26 -51 0 -51 -28 -70 -111 -74 l-69 -4 0 69 c0 38 3 73 8 77 12 13 118 1
146 -17z"/>
<path d="M8180 350 l0 -180 130 0 130 0 0 30 c0 16 -3 29 -7 29 -5 -1 -50 -1
-100 0 l-93 1 0 150 0 150 -30 0 -30 0 0 -180z"/>
</g>
</svg>
